PathFileType	4	(X/Y/Z)	C:\Github\BTS_project\Data\sports2d_results\test6 Exam_2026-03-06_143334_tvc4_Sports2D\test6 Exam_2026-03-06_143334_tvc4_Sports2D_px_person00.trc
DataRate	CameraRate	NumFrames	NumMarkers	Units	OrigDataRate	OrigDataStartFrame	OrigNumFrames
30.0	30.0	6	22	m	30.0	110	220
Frame#	Time	Hip			RHip			RKnee			RAnkle			RBigToe			RSmallToe			RHeel			LHip			LKnee			LAnkle			LBigToe			LSmallToe			LHeel			Neck			Head			Nose			RShoulder			RElbow			RWrist			LShoulder			LElbow			LWrist			
		X1	Y1	Z1	X2	Y2	Z2	X3	Y3	Z3	X4	Y4	Z4	X5	Y5	Z5	X6	Y6	Z6	X7	Y7	Z7	X8	Y8	Z8	X9	Y9	Z9	X10	Y10	Z10	X11	Y11	Z11	X12	Y12	Z12	X13	Y13	Z13	X14	Y14	Z14	X15	Y15	Z15	X16	Y16	Z16	X17	Y17	Z17	X18	Y18	Z18	X19	Y19	Z19	X20	Y20	Z20	X21	Y21	Z21	X22	Y22	Z22
110	3.6834094368340944	147.7355799171566	719.6509956540547	0.0	125.83355354677096	724.1401690232572	0.0	112.56173749586584	810.0027192761004	0.0	105.32578768170029	893.2621263752615	0.0	109.61765277033905	920.572629139265	0.0	96.10923385191023	918.6399039163604	0.0	100.85652059835783	905.6676896305296	0.0	171.20574241036545	725.2323622327367	0.0	180.52335433582567	807.000761019058	0.0	178.91230785249036	883.805723192195	0.0	169.19409493424314	910.8475656523101	0.0	185.9782671824427	905.7345638054642	0.0	162.8410176672673	898.5998075928673	0.0	145.1835260023486	595.733760764989	0.0	147.92047559138751	541.6080755799993	0.0	155.6697525893669	568.4716375598654	0.0	109.84706609168708	615.2807403136202	0.0	93.25230652847806	667.130210592964	0.0	137.11354809526557	658.2095348099608	0.0	180.64862461680713	611.342194136355	0.0	190.5822993977562	656.9758229335021	0.0	178.34266124400716	663.122176426842	0.0
111	3.7168949771689497	148.6515090829841	719.7017179026444	0.0	126.53357960684328	722.9276180939291	0.0	112.7756754977178	808.4633078316474	0.0	103.59517163597454	891.7422112308154	0.0	108.76833301678292	920.7737233058299	0.0	94.89819141205209	919.6478608063385	0.0	99.94797728762134	904.3235365941403	0.0	172.94544456498394	724.2502162213025	0.0	178.55718072908618	804.6000042516292	0.0	179.20751143511626	882.9001799138763	0.0	171.4402831583773	910.0579487706138	0.0	188.48632171524434	905.1836470645229	0.0	165.45943661639757	899.0259811442779	0.0	146.43367610139404	595.105094442319	0.0	148.30422836352784	537.8762899969862	0.0	155.54805035086633	569.3887132198524	0.0	109.81531472209562	614.3530731596031	0.0	92.87746394459008	667.312725299103	0.0	136.61948730360456	659.4012251352981	0.0	181.7903495653711	611.2982182320073	0.0	193.00994743651486	656.5155509190993	0.0	179.74766361062305	662.6237668889628	0.0
112	3.750380517503805	149.27399202618096	719.9359386985575	0.0	127.25228095703592	723.6751808339952	0.0	112.99009696045871	807.5685181568875	0.0	102.36473334445078	889.1451084609731	0.0	108.22484972179996	919.5435645558143	0.0	93.81516914507493	918.7515722537387	0.0	98.88103670836165	902.3492254468451	0.0	172.79048502406482	725.6357197697056	0.0	176.07165244916487	803.9236466754471	0.0	178.89771438148907	881.7052128796781	0.0	183.01237924122907	912.0246044760918	0.0	194.50665054419727	906.4627982948394	0.0	168.97459718060102	900.3884740938233	0.0	149.83348574743565	595.359624334118	0.0	151.0890206056758	537.8655662617211	0.0	157.2616752347502	569.2037276913431	0.0	110.80430799855503	613.0352331997915	0.0	92.467057759268	667.7055562759956	0.0	134.72353898652656	661.7635891021655	0.0	184.29644355871287	611.6915370061662	0.0	197.73047354883295	657.7451509526825	0.0	183.77262090234842	664.1874273417413	0.0
113	3.7838660578386603	150.2198390851094	720.2831450124171	0.0	128.15398308923915	725.5145387184892	0.0	113.02004225392105	807.2129784124684	0.0	102.1589077369378	887.1797149138913	0.0	108.40986688132932	917.8030769710647	0.0	93.29390931965226	916.3906242631742	0.0	98.99702028183766	900.3910253759018	0.0	172.87532194037362	728.1862405172519	0.0	175.82458901701267	804.8118094907236	0.0	178.3132764333405	880.8100114677633	0.0	196.1979156716899	914.7196073168307	0.0	202.1968556839308	907.4078545170189	0.0	171.83000694261034	900.9153307956481	0.0	152.75294713060885	595.9134087014338	0.0	153.40124556973305	540.1095984938919	0.0	158.79535627330102	569.8721108099127	0.0	111.90180290675525	612.0372594287891	0.0	92.36893319178661	667.9994038436658	0.0	132.35924623105188	663.7169398033607	0.0	187.50147540761117	612.1273371650097	0.0	202.8657973395301	658.5904729252794	0.0	188.68038667712747	665.3364576736827	0.0
114	3.8173515981735155	151.47090869817524	720.7366417569783	0.0	128.92669142694086	726.8907781040828	0.0	112.926112498962	807.1792950743313	0.0	102.61881423344857	887.2489885094876	0.0	109.49691645948592	916.7246418024777	0.0	93.87984759241401	914.4748666680713	0.0	100.05017653982306	899.207766944972	0.0	173.97963054211948	729.6097010925309	0.0	177.85408788290493	805.7586559947381	0.0	178.83860799558315	880.556249806709	0.0	202.98890498771976	912.5068764503661	0.0	207.93955151604683	903.8311931750782	0.0	173.7732376497278	898.9464934810633	0.0	153.46772243478424	595.9358700957637	0.0	153.3842508654667	541.6199656019104	0.0	158.54548124312413	570.921261096298	0.0	112.2602571845332	611.660428228887	0.0	92.5527637501304	668.1612646147535	0.0	131.14016845842292	664.5687094840371	0.0	189.61391192035032	612.2690130045648	0.0	205.24223079105846	659.693107486652	0.0	191.3459978061452	663.0739593548967	0.0
115	3.8508371385083713	152.79249662534824	721.9192354764211	0.0	129.3560810940602	728.3807267799123	0.0	112.73872538678673	807.578240031777	0.0	103.00057344700791	888.9679410017378	0.0	110.78155489693968	916.4332510471305	0.0	95.3439425402059	914.4108351978659	0.0	101.0450654402332	899.5039256934836	0.0	175.82644682065128	730.0764247177831	0.0	180.33197025574756	805.8920357150956	0.0	181.2496134904914	880.636226052707	0.0	204.17664985193994	905.5901617090979	0.0	210.68473635693192	897.5826296999765	0.0	175.75154977204576	895.8478242880922	0.0	152.4093390103748	595.6092134455987	0.0	151.73573363133517	541.5129610304953	0.0	157.73307802395686	571.1969610153578	0.0	111.7623376521376	612.1272197801751	0.0	92.72330430775514	668.4637975390117	0.0	131.34761480362175	664.8530755629134	0.0	190.08619192269697	612.2704849172633	0.0	205.6107558973933	663.1376242238939	0.0	190.73551189963464	658.5317345500596	0.0
